# xmcd CD database file
#
# Track frame offsets:
#	150
#	11984
#	24796
#	38188
#	47847
#	57244
#	70648
#	85286
#	96258
#	108247
#	121623
#	136014
#	148595
#	160683
#	175850
#	189023
#	203234
#	215622
#
# Disc length: 3057 seconds
#
# Revision: 0
# Processed by: cddbd v1.5.1PL0 Copyright (c) Steve Scherf et al.
# Submitted via: CDex 1.51
#
DISCID=e90bef12
DTITLE=Chester Burnett AKA Howlin' Wolf - Dorothy Mae
DYEAR=1900
DGENRE=Blues
TTITLE0=Baby Ride With Me
TTITLE1=How Many More Years
TTITLE2=California Boogie
TTITLE3=Look A Here Baby
TTITLE4=Smile At Me
TTITLE5=My Baby Walked Off
TTITLE6=My Troubles And Me
TTITLE7=Mr. Highway Man
TTITLE8=Chocolate Drop
TTITLE9=Everybody's In The Mood
TTITLE10=Colour And Kind
TTITLE11=Bluebird
TTITLE12=Dorothy Mae
TTITLE13=Sweet Woman (I Got A Woman)
TTITLE14=Well That's All Right
TTITLE15=Decoration Day
TTITLE16=Oh Red
TTITLE17=Drinkin' C.V. Wine
EXTD=
EXTT0=
EXTT1=
EXTT2=
EXTT3=
EXTT4=
EXTT5=
EXTT6=
EXTT7=
EXTT8=
EXTT9=
EXTT10=
EXTT11=
EXTT12=
EXTT13=
EXTT14=
EXTT15=
EXTT16=
EXTT17=
PLAYORDER=
